<svg xmlns="http://www.w3.org/2000/svg" viewBox="0 0 114.77 30.52"><defs><style>.cls-1{font-size:18.83px;font-family:Hind-Bold, Hind;font-weight:700;}</style></defs><title>Asset 1</title><g id="Layer_2" data-name="Layer 2"><g id="Layer_1-2" data-name="Layer 1"><text class="cls-1" transform="translate(32.46 20.78)">TaxPanda</text><path d="M14.75,18.71A1.36,1.36,0,0,0,16,17.62c0-.42-.59-.76-1.26-.76s-1.26.34-1.26.76A1.36,1.36,0,0,0,14.75,18.71Z"/><path d="M13.23,14.5c0-1.52.17-2.78-1.26-2.78s-3.71,2.36-3.71,4,1.1,1.69,2.53,1.69A2.73,2.73,0,0,0,13.23,14.5Zm-1.77.84a.76.76,0,1,1,.76-.76A.76.76,0,0,1,11.46,15.34Z"/><path d="M14.75,20.06c-1.35,0-2.36-.59-2.36.09s1.1,1.6,2.36,1.6,2.36-1,2.36-1.6S16.1,20.06,14.75,20.06Z"/><path d="M17.53,11.72c-1.35,0-1.26,1.26-1.26,2.78a2.65,2.65,0,0,0,2.53,2.78c1.35,0,2.53-.17,2.53-1.69S19,11.72,17.53,11.72Zm.5,3.62a.76.76,0,1,1,.76-.76A.76.76,0,0,1,18,15.34Z"/><path d="M14.75,0A14.75,14.75,0,1,0,29.5,14.75,14.71,14.71,0,0,0,14.75,0ZM23,13.15h-.25a8.31,8.31,0,0,1,.67,3.12c0,4.13-3.88,6.24-8.68,6.24S6.07,20.4,6.07,16.27a8.32,8.32,0,0,1,.67-3.12H6.49A3,3,0,0,1,4.64,9.36,3,3,0,0,1,8.18,7a2.74,2.74,0,0,1,1.94,2.19,8.36,8.36,0,0,1,4.72-1.6,7.78,7.78,0,0,1,4.72,1.6A2.87,2.87,0,0,1,21.49,7,3,3,0,0,1,25,9.36,3.17,3.17,0,0,1,23,13.15Z"/></g></g></svg>